<?xml version="1.0" standalone="no"?>
<!DOCTYPE svg PUBLIC "-//W3C//DTD SVG 20010904//EN"
 "http://www.w3.org/TR/2001/REC-SVG-20010904/DTD/svg10.dtd">
<svg version="1.0" xmlns="http://www.w3.org/2000/svg"
 width="700.000000pt" height="700.000000pt" viewBox="0 0 700.000000 700.000000"
 preserveAspectRatio="xMidYMid meet">
<metadata>
Created by potrace 1.11, written by Peter Selinger 2001-2013
</metadata>
<g transform="translate(0.000000,700.000000) scale(0.100000,-0.100000)"
fill="#000000" stroke="none">
<path d="M5249 6989 c-107 -25 -197 -77 -289 -167 -30 -30 -341 -336 -690
-682 -349 -345 -698 -689 -775 -765 -77 -75 -409 -403 -739 -729 -329 -325
-671 -662 -760 -750 -174 -172 -1284 -1267 -1397 -1380 -38 -38 -72 -80 -75
-95 -4 -14 -17 -64 -30 -111 -22 -82 -121 -473 -169 -670 -13 -52 -44 -180
-69 -285 -26 -104 -53 -217 -61 -250 -34 -142 -57 -241 -61 -261 -2 -11 -17
-85 -34 -165 -85 -397 -112 -597 -91 -651 9 -24 16 -28 52 -28 127 0 353 48
964 204 6 2 24 6 40 11 81 20 375 101 585 160 129 37 264 75 300 85 141 39
426 123 436 129 7 3 280 272 607 596 522 518 1038 1028 1837 1815 1896 1867
2062 2034 2103 2112 86 161 82 368 -11 528 -30 51 -65 92 -136 159 -28 25
-286 283 -575 573 -575 575 -584 583 -727 613 -75 16 -178 18 -235 4z"/>
</g>
</svg>
